<!-- Material Symbols Outlined, Apache License 2.0. -->
<svg xmlns="http://www.w3.org/2000/svg" width="24" height="24" viewBox="0 0 24 24">
  <path fill="#6E6E6E" d="M5.65 10.025 7.6 10.85Q7.95 10.15 8.325 9.5T9.15 8.2L7.75 7.925 5.65 10.025ZM9.2 12.1 12.05 14.925Q13.1 14.525 14.3 13.7T16.55 11.825Q18.3 10.075 19.2875 7.9375T20.15 4Q18.35 3.875 16.2 4.8625T12.3 7.6Q11.25 8.65 10.425 9.85T9.2 12.1ZM13.65 10.475Q13.075 9.9 13.075 9.0625T13.65 7.65Q14.225 7.075 15.075 7.075T16.5 7.65Q17.075 8.225 17.075 9.0625T16.5 10.475Q15.925 11.05 15.075 11.05T13.65 10.475ZM14.125 18.5 16.225 16.4 15.95 15Q15.3 15.45 14.65 15.8125T13.3 16.525L14.125 18.5ZM21.95 2.175Q22.425 5.2 21.3625 8.0625T17.7 13.525L18.2 16Q18.3 16.5 18.15 16.975T17.65 17.8L13.45 22 11.35 17.075 7.075 12.8 2.15 10.7 6.325 6.5Q6.675 6.15 7.1625 6T8.15 5.95L10.625 6.45Q13.225 3.85 16.075 2.775T21.95 2.175ZM3.925 15.975Q4.8 15.1 6.0625 15.0875T8.2 15.95Q9.075 16.825 9.0625 18.0875T8.175 20.225Q7.55 20.85 6.0875 21.3T2.05 22.1Q2.4 19.525 2.85 18.0625T3.925 15.975ZM5.35 17.375Q5.1 17.625 4.85 18.2875T4.5 19.625Q5.175 19.525 5.8375 19.2875T6.75 18.8Q7.05 18.5 7.075 18.075T6.8 17.35Q6.5 17.05 6.075 17.0625T5.35 17.375Z"/>
</svg>
